<?xml version="1.0" encoding="utf-8"?>
<!-- Generator: Adobe Illustrator 18.1.1, SVG Export Plug-In . SVG Version: 6.00 Build 0)  -->
<!DOCTYPE svg PUBLIC "-//W3C//DTD SVG 1.1//EN" "http://www.w3.org/Graphics/SVG/1.1/DTD/svg11.dtd">
<svg version="1.1" id="Layer_1" xmlns="http://www.w3.org/2000/svg" xmlns:xlink="http://www.w3.org/1999/xlink" x="0px" y="0px"
	 viewBox="0 0 592.1 193.1" enable-background="new 0 0 592.1 193.1" xml:space="preserve">
<g>
	<path fill="#222222" d="M54.3,102.7l-4.8,5c-4-3.9-8-5.9-11.8-5.9c-2.4,0-4.5,0.8-6.3,2.4c-1.7,1.6-2.6,3.5-2.6,5.6
		c0,1.9,0.7,3.7,2.2,5.4c1.4,1.8,4.4,3.8,9,6.2c5.6,2.9,9.4,5.7,11.4,8.4c2,2.7,3,5.8,3,9.2c0,4.8-1.7,8.9-5.1,12.2s-7.6,5-12.6,5
		c-3.4,0-6.6-0.7-9.7-2.2c-3.1-1.5-5.6-3.5-7.6-6.1l4.7-5.4c3.8,4.3,7.9,6.5,12.2,6.5c3,0,5.6-1,7.7-2.9c2.1-1.9,3.2-4.2,3.2-6.8
		c0-2.1-0.7-4.1-2.1-5.7c-1.4-1.6-4.6-3.7-9.5-6.2c-5.3-2.7-8.9-5.4-10.8-8.1c-1.9-2.6-2.9-5.7-2.9-9.1c0-4.4,1.5-8.1,4.5-11.1
		c3-2.9,6.9-4.4,11.5-4.4C43.4,94.8,48.9,97.5,54.3,102.7z"/>
	<path fill="#222222" d="M74.2,74.6h7.5v21.7h11.9v6.5H81.7v51.9h-7.5v-51.9H63.9v-6.5h10.3V74.6z"/>
	<path fill="#222222" d="M129.5,94.8c9,0,16.5,3.3,22.4,9.8c5.4,5.9,8.1,13,8.1,21.1c0,8.2-2.8,15.3-8.5,21.4
		c-5.7,6.1-13,9.2-21.9,9.2c-9,0-16.3-3.1-22-9.2c-5.7-6.1-8.5-13.2-8.5-21.4c0-8.1,2.7-15.1,8.1-21C113,98.1,120.5,94.8,129.5,94.8
		z M129.5,102.2c-6.3,0-11.6,2.3-16.1,6.9s-6.7,10.2-6.7,16.8c0,4.2,1,8.2,3.1,11.8c2,3.7,4.8,6.5,8.3,8.5c3.5,2,7.3,3,11.5,3
		c4.2,0,8-1,11.5-3c3.5-2,6.3-4.8,8.3-8.5c2-3.7,3.1-7.6,3.1-11.8c0-6.6-2.3-12.1-6.8-16.8S135.7,102.2,129.5,102.2z"/>
	<path fill="#222222" d="M171.1,96.3h7.7v8.5c2.3-3.4,4.7-5.9,7.2-7.5c2.5-1.7,5.2-2.5,7.9-2.5c2.1,0,4.3,0.7,6.7,2l-3.9,6.3
		c-1.6-0.7-2.9-1-4-1c-2.5,0-4.9,1-7.2,3.1c-2.3,2.1-4.1,5.3-5.3,9.6c-0.9,3.3-1.4,10.1-1.4,20.2v19.8h-7.7V96.3z"/>
	<path fill="#222222" d="M205.7,96.3h7.9l20.1,45l19.5-45h8l-34.8,79.8h-7.9l11.2-25.8L205.7,96.3z"/>
	<path fill="#222222" d="M305.7,104.5l-9.1,9.1c-3.7-3.7-7-5.5-10-5.5c-1.6,0-2.9,0.3-3.9,1c-0.9,0.7-1.4,1.6-1.4,2.6
		c0,0.8,0.3,1.5,0.9,2.2c0.6,0.7,2,1.6,4.4,2.7l5.4,2.7c5.7,2.8,9.5,5.6,11.7,8.5c2.1,2.9,3.2,6.3,3.2,10.2c0,5.2-1.9,9.5-5.7,13
		c-3.8,3.5-8.9,5.2-15.3,5.2c-8.5,0-15.3-3.3-20.4-10l9-9.8c1.7,2,3.7,3.6,6,4.9c2.3,1.2,4.4,1.9,6.1,1.9c1.9,0,3.5-0.5,4.7-1.4
		c1.2-0.9,1.8-2,1.8-3.2c0-2.3-2.1-4.5-6.4-6.6l-4.9-2.5c-9.5-4.8-14.2-10.7-14.2-17.9c0-4.6,1.8-8.6,5.3-11.8
		c3.6-3.3,8.1-4.9,13.7-4.9c3.8,0,7.4,0.8,10.7,2.5C300.6,99,303.4,101.4,305.7,104.5z"/>
	<path fill="#222222" d="M321.1,74.8h14.7v21.5h8.7v12.6h-8.7v45.8h-14.7v-45.8h-7.5V96.3h7.5V74.8z"/>
	<path fill="#222222" d="M353.3,96.3h14.8v28.1c0,5.5,0.4,9.3,1.1,11.4c0.8,2.1,2,3.8,3.6,5c1.7,1.2,3.7,1.8,6.2,1.8
		c2.4,0,4.5-0.6,6.2-1.7c1.7-1.2,3-2.9,3.8-5.1c0.6-1.7,0.9-5.3,0.9-10.8V96.3h14.7v24.8c0,10.2-0.8,17.2-2.4,20.9
		c-2,4.6-4.9,8.1-8.7,10.6c-3.8,2.5-8.7,3.7-14.6,3.7c-6.4,0-11.6-1.4-15.5-4.3c-4-2.9-6.7-6.9-8.3-12c-1.1-3.5-1.7-10-1.7-19.3
		V96.3z"/>
	<path fill="#222222" d="M458.4,73.8h14.7v81h-14.7v-6.2c-2.9,2.7-5.7,4.7-8.6,5.9c-2.9,1.2-6,1.8-9.4,1.8c-7.5,0-14.1-2.9-19.6-8.8
		c-5.5-5.9-8.3-13.1-8.3-21.8c0-9,2.7-16.4,8-22.2c5.3-5.8,11.8-8.6,19.4-8.6c3.5,0,6.8,0.7,9.9,2s5.9,3.3,8.5,6V73.8z M443,108.4
		c-4.5,0-8.3,1.6-11.3,4.8c-3,3.2-4.5,7.3-4.5,12.3c0,5,1.5,9.2,4.6,12.5c3.1,3.3,6.8,4.9,11.3,4.9c4.6,0,8.4-1.6,11.5-4.8
		c3-3.2,4.5-7.4,4.5-12.6c0-5.1-1.5-9.2-4.5-12.3C451.5,109.9,447.7,108.4,443,108.4z"/>
	<path fill="#222222" d="M493.6,72.3c2.6,0,4.8,0.9,6.6,2.8c1.8,1.9,2.8,4.1,2.8,6.8c0,2.6-0.9,4.8-2.7,6.7c-1.8,1.8-4,2.8-6.5,2.8
		c-2.6,0-4.8-0.9-6.7-2.8c-1.8-1.9-2.8-4.2-2.8-6.8c0-2.6,0.9-4.8,2.7-6.6C488.9,73.2,491.1,72.3,493.6,72.3z M486.3,96.3H501v58.4
		h-14.7V96.3z"/>
	<path fill="#222222" d="M541.7,94.8c5.5,0,10.7,1.4,15.5,4.1c4.8,2.8,8.6,6.5,11.4,11.2c2.7,4.7,4.1,9.8,4.1,15.3
		c0,5.5-1.4,10.7-4.1,15.5c-2.7,4.8-6.5,8.5-11.2,11.2c-4.7,2.7-9.9,4.1-15.6,4.1c-8.4,0-15.5-3-21.5-8.9c-5.9-6-8.9-13.2-8.9-21.7
		c0-9.1,3.3-16.7,10-22.8C527.3,97.5,534.1,94.8,541.7,94.8z M542,108.6c-4.6,0-8.3,1.6-11.4,4.8s-4.5,7.2-4.5,12.2
		c0,5.1,1.5,9.2,4.5,12.4c3,3.2,6.8,4.7,11.4,4.7s8.4-1.6,11.5-4.8c3-3.2,4.6-7.3,4.6-12.3c0-5-1.5-9.1-4.5-12.2
		C550.4,110.2,546.6,108.6,542,108.6z"/>
</g>
<line fill="none" stroke="#222222" stroke-miterlimit="10" x1="364.7" y1="36.9" x2="572.7" y2="36.9"/>
<line fill="none" stroke="#222222" stroke-miterlimit="10" x1="22.6" y1="36.9" x2="226.8" y2="36.9"/>
<g>
	<path fill="#222222" d="M257.3,23c3.3,0,6.1,1.2,8.5,3.6c2.4,2.4,3.6,5.3,3.6,8.7c0,3.4-1.2,6.3-3.5,8.7c-2.3,2.4-5.2,3.5-8.5,3.5
		c-3.5,0-6.4-1.2-8.7-3.6c-2.3-2.4-3.5-5.3-3.5-8.6c0-2.2,0.5-4.3,1.6-6.2c1.1-1.9,2.6-3.4,4.5-4.5C253.1,23.5,255.2,23,257.3,23z
		 M257.3,27.3c-2.2,0-4,0.8-5.5,2.3c-1.5,1.5-2.2,3.4-2.2,5.7c0,2.6,0.9,4.6,2.8,6.1c1.4,1.2,3.1,1.8,5,1.8c2.1,0,3.9-0.8,5.4-2.3
		c1.5-1.5,2.2-3.4,2.2-5.6c0-2.2-0.7-4.1-2.2-5.6C261.2,28.1,259.4,27.3,257.3,27.3z"/>
	<path fill="#222222" d="M289.2,33.1l-3.6,2c-0.7-0.7-1.3-1.2-2-1.5c-0.7-0.3-1.4-0.4-2.3-0.4c-1.6,0-2.9,0.5-3.9,1.4
		c-1,1-1.5,2.2-1.5,3.7c0,1.5,0.5,2.7,1.4,3.6c1,0.9,2.2,1.4,3.8,1.4c1.9,0,3.4-0.7,4.5-2l3.4,2.3c-1.9,2.4-4.5,3.6-7.8,3.6
		c-3,0-5.4-0.9-7.1-2.7c-1.7-1.8-2.6-3.9-2.6-6.3c0-1.7,0.4-3.2,1.3-4.6c0.8-1.4,2-2.5,3.5-3.3c1.5-0.8,3.2-1.2,5-1.2
		c1.7,0,3.3,0.3,4.6,1C287.2,30.9,288.3,31.9,289.2,33.1z"/>
	<path fill="#222222" d="M291.6,29.6h4.4v8.3c0,1.6,0.1,2.7,0.3,3.4c0.2,0.6,0.6,1.1,1.1,1.5c0.5,0.3,1.1,0.5,1.8,0.5
		c0.7,0,1.3-0.2,1.8-0.5c0.5-0.3,0.9-0.8,1.1-1.5c0.2-0.5,0.3-1.6,0.3-3.2v-8.5h4.3v7.3c0,3-0.2,5.1-0.7,6.2
		c-0.6,1.4-1.4,2.4-2.6,3.1c-1.1,0.7-2.6,1.1-4.3,1.1c-1.9,0-3.4-0.4-4.6-1.3c-1.2-0.8-2-2-2.5-3.5c-0.3-1-0.5-3-0.5-5.7V29.6z"/>
	<path fill="#222222" d="M310,23h4.3v23.9H310V23z"/>
	<path fill="#222222" d="M317.4,29.6h4.4v8.3c0,1.6,0.1,2.7,0.3,3.4c0.2,0.6,0.6,1.1,1.1,1.5c0.5,0.3,1.1,0.5,1.8,0.5
		c0.7,0,1.3-0.2,1.8-0.5c0.5-0.3,0.9-0.8,1.1-1.5c0.2-0.5,0.3-1.6,0.3-3.2v-8.5h4.3v7.3c0,3-0.2,5.1-0.7,6.2
		c-0.6,1.4-1.4,2.4-2.6,3.1c-1.1,0.7-2.6,1.1-4.3,1.1c-1.9,0-3.4-0.4-4.6-1.3c-1.2-0.8-2-2-2.5-3.5c-0.3-1-0.5-3-0.5-5.7V29.6z"/>
	<path fill="#222222" d="M346.6,32l-2.7,2.7c-1.1-1.1-2.1-1.6-3-1.6c-0.5,0-0.9,0.1-1.1,0.3c-0.3,0.2-0.4,0.5-0.4,0.8
		c0,0.2,0.1,0.4,0.3,0.6c0.2,0.2,0.6,0.5,1.3,0.8l1.6,0.8c1.7,0.8,2.8,1.7,3.4,2.5c0.6,0.9,0.9,1.9,0.9,3c0,1.5-0.6,2.8-1.7,3.8
		c-1.1,1-2.6,1.5-4.5,1.5c-2.5,0-4.5-1-6-3l2.7-2.9c0.5,0.6,1.1,1.1,1.8,1.4c0.7,0.4,1.3,0.5,1.8,0.5c0.6,0,1-0.1,1.4-0.4
		c0.3-0.3,0.5-0.6,0.5-1c0-0.7-0.6-1.3-1.9-2l-1.5-0.7c-2.8-1.4-4.2-3.2-4.2-5.3c0-1.4,0.5-2.5,1.6-3.5c1.1-1,2.4-1.5,4-1.5
		c1.1,0,2.2,0.2,3.2,0.7C345.1,30.4,345.9,31.1,346.6,32z"/>
</g>
</svg>
